<?xml version="1.0" standalone="no"?>
<!DOCTYPE svg PUBLIC "-//W3C//DTD SVG 20010904//EN"
 "http://www.w3.org/TR/2001/REC-SVG-20010904/DTD/svg10.dtd">
<svg version="1.0" xmlns="http://www.w3.org/2000/svg"
 width="117.000000pt" height="182.000000pt" viewBox="0 0 117.000000 182.000000"
 preserveAspectRatio="xMidYMid meet">
<metadata>
Created by potrace 1.10, written by Peter Selinger 2001-2011
</metadata>
<g transform="translate(0.000000,182.000000) scale(0.100000,-0.100000)"
fill="#000000" stroke="none">
<path d="M371 1654 c-17 -14 -31 -33 -31 -42 0 -8 -4 -29 -9 -46 -6 -17 -14
-56 -20 -86 -5 -30 -19 -95 -31 -145 -11 -49 -24 -106 -29 -125 -4 -19 -12
-44 -18 -55 -6 -11 -16 -51 -22 -90 -13 -78 -46 -270 -62 -355 -5 -30 -12
-120 -16 -201 l-6 -145 32 -25 c17 -13 44 -34 60 -46 16 -13 34 -23 41 -23 6
0 23 -9 37 -20 34 -27 74 -25 101 3 22 23 30 71 13 81 -11 7 -5 300 8 351 5
22 14 56 19 75 10 38 40 96 75 146 33 47 119 95 133 73 3 -5 15 -9 27 -9 33 0
96 -50 118 -93 12 -22 22 -67 25 -105 4 -64 3 -71 -38 -147 -37 -69 -50 -84
-93 -107 -27 -15 -60 -28 -71 -28 -12 0 -33 -9 -46 -20 -14 -10 -45 -22 -69
-26 -53 -8 -89 -38 -89 -74 0 -27 16 -45 79 -89 l34 -24 106 17 c58 10 118 25
132 34 82 52 113 78 185 149 78 77 88 93 114 180 20 65 9 217 -20 273 -32 64
-124 152 -197 189 -93 46 -240 62 -335 35 -25 -7 -24 36 2 86 11 22 20 59 20
82 0 24 6 66 14 93 8 28 21 76 30 108 23 83 21 129 -7 155 -19 18 -35 22 -94
22 -62 0 -75 -3 -102 -26z"/>
</g>
</svg>
