<?xml version="1.0" standalone="no"?>
<!DOCTYPE svg PUBLIC "-//W3C//DTD SVG 20010904//EN"
 "http://www.w3.org/TR/2001/REC-SVG-20010904/DTD/svg10.dtd">
<svg version="1.0" xmlns="http://www.w3.org/2000/svg"
 width="117.000000pt" height="145.000000pt" viewBox="0 0 117.000000 145.000000"
 preserveAspectRatio="xMidYMid meet">
<metadata>
Created by potrace 1.10, written by Peter Selinger 2001-2011
</metadata>
<g transform="translate(0.000000,145.000000) scale(0.100000,-0.100000)"
fill="#000000" stroke="none">
<path d="M660 1170 c-41 -21 -83 -39 -93 -40 -23 0 -58 -26 -144 -105 -35 -33
-69 -59 -74 -57 -5 1 -8 -2 -7 -7 2 -4 -18 -32 -44 -60 -27 -29 -48 -57 -48
-62 0 -6 -20 -34 -44 -62 -46 -55 -76 -106 -76 -131 0 -7 -11 -38 -25 -68 -21
-44 -25 -68 -25 -142 l0 -89 47 -47 c61 -61 118 -75 298 -74 103 0 136 4 160
17 17 9 39 17 50 17 11 0 47 16 80 35 33 18 92 50 130 70 88 46 115 71 115
105 0 59 -87 91 -150 55 -14 -8 -36 -14 -50 -15 -15 0 -30 -4 -35 -9 -6 -4
-39 -14 -75 -20 -36 -6 -85 -20 -110 -30 -25 -11 -65 -24 -90 -31 -25 -7 -58
-17 -73 -23 -39 -14 -52 2 -52 66 0 53 14 109 43 181 18 43 181 232 265 306
57 51 106 79 205 116 111 42 144 62 140 87 -4 29 -90 56 -178 56 -56 0 -75 -5
-140 -39z"/>
</g>
</svg>
