<?xml version="1.0" standalone="no"?>
<!DOCTYPE svg PUBLIC "-//W3C//DTD SVG 20010904//EN"
 "http://www.w3.org/TR/2001/REC-SVG-20010904/DTD/svg10.dtd">
<svg version="1.0" xmlns="http://www.w3.org/2000/svg"
 width="140.000000pt" height="237.000000pt" viewBox="0 0 140.000000 237.000000"
 preserveAspectRatio="xMidYMid meet">
<metadata>
Created by potrace 1.10, written by Peter Selinger 2001-2011
</metadata>
<g transform="translate(0.000000,237.000000) scale(0.100000,-0.100000)"
fill="#000000" stroke="none">
<path d="M1052 2147 c-13 -14 -22 -36 -22 -54 0 -40 -28 -180 -42 -213 -18
-41 -30 -91 -38 -160 -8 -61 -47 -244 -69 -320 -24 -86 -40 -157 -41 -183 0
-15 -9 -45 -20 -67 -11 -22 -20 -48 -20 -58 0 -10 -6 -26 -13 -36 -12 -17 -16
-17 -43 -3 -16 8 -58 25 -93 37 -56 20 -78 22 -170 17 -58 -3 -122 -11 -141
-17 -126 -45 -171 -79 -216 -163 -26 -47 -28 -61 -28 -148 1 -87 5 -103 34
-165 17 -38 48 -86 68 -108 40 -41 136 -116 150 -116 4 0 21 -14 38 -31 64
-69 164 -89 225 -44 19 13 69 42 111 64 42 22 79 45 83 51 4 6 42 28 85 50 43
22 81 44 85 50 4 6 28 21 55 35 26 13 62 42 80 65 17 22 38 40 45 40 27 0 75
51 75 79 0 36 -38 71 -76 71 -35 -1 -95 -22 -126 -44 -13 -9 -34 -24 -48 -33
-33 -24 -16 3 22 36 23 19 28 31 27 60 -2 20 3 46 9 58 7 12 12 35 12 52 0 16
4 40 9 53 15 39 29 99 46 203 29 183 34 219 46 345 11 117 34 246 58 333 17
58 30 104 42 145 23 79 23 92 -2 118 -20 21 -31 24 -99 24 -67 0 -79 -3 -98
-23z m-437 -1198 c59 -19 70 -27 124 -92 33 -40 76 -91 96 -114 l37 -42 -29
-6 c-38 -8 -182 -76 -196 -93 -6 -8 -43 -30 -81 -49 -39 -19 -79 -42 -89 -51
-16 -15 -21 -12 -71 41 -93 98 -113 136 -121 229 l-7 82 43 38 c24 20 53 38
64 38 11 1 36 9 55 20 46 25 96 25 175 -1z"/>
</g>
</svg>
