<?xml version="1.0" standalone="no"?>
<!DOCTYPE svg PUBLIC "-//W3C//DTD SVG 20010904//EN"
 "http://www.w3.org/TR/2001/REC-SVG-20010904/DTD/svg10.dtd">
<svg version="1.0" xmlns="http://www.w3.org/2000/svg"
 width="168.000000pt" height="181.000000pt" viewBox="0 0 168.000000 181.000000"
 preserveAspectRatio="xMidYMid meet">
<metadata>
Created by potrace 1.10, written by Peter Selinger 2001-2011
</metadata>
<g transform="translate(0.000000,181.000000) scale(0.100000,-0.100000)"
fill="#000000" stroke="none">
<path d="M911 1599 c-47 -5 -92 -15 -100 -23 -9 -8 -61 -36 -116 -64 -82 -41
-112 -62 -165 -119 -36 -39 -76 -87 -90 -107 -14 -21 -35 -50 -47 -66 -13 -15
-23 -35 -23 -44 0 -15 -13 -41 -65 -136 -7 -14 -19 -45 -25 -70 -7 -25 -16
-55 -21 -68 -5 -13 -9 -85 -9 -160 1 -135 1 -138 33 -196 33 -62 77 -101 172
-153 47 -26 57 -28 175 -28 l125 0 92 48 c51 26 100 47 108 47 8 0 57 21 108
46 106 53 167 105 167 144 0 32 -57 90 -88 90 -12 0 -63 -20 -112 -45 -49 -25
-96 -45 -105 -45 -8 0 -56 -20 -107 -44 -112 -53 -152 -66 -202 -66 -42 0 -96
22 -120 49 -47 51 -74 228 -44 284 11 21 18 46 39 135 6 23 13 42 15 42 3 0
22 -9 44 -20 22 -11 46 -20 55 -20 9 0 29 -7 45 -15 63 -33 154 -30 369 12 33
6 157 129 180 178 24 52 30 80 43 197 10 93 9 99 -13 139 -13 23 -35 50 -49
60 -32 23 -153 31 -269 18z m109 -213 c0 -36 -6 -49 -42 -88 -24 -25 -54 -49
-68 -53 -14 -4 -48 -20 -76 -35 -54 -30 -169 -52 -211 -41 -20 5 -17 11 46 68
89 82 122 106 206 147 77 37 126 55 138 49 4 -2 7 -23 7 -47z"/>
</g>
</svg>
