<?xml version="1.0" standalone="no"?>
<!DOCTYPE svg PUBLIC "-//W3C//DTD SVG 20010904//EN"
 "http://www.w3.org/TR/2001/REC-SVG-20010904/DTD/svg10.dtd">
<svg version="1.0" xmlns="http://www.w3.org/2000/svg"
 width="154.000000pt" height="219.000000pt" viewBox="0 0 154.000000 219.000000"
 preserveAspectRatio="xMidYMid meet">
<metadata>
Created by potrace 1.10, written by Peter Selinger 2001-2011
</metadata>
<g transform="translate(0.000000,219.000000) scale(0.100000,-0.100000)"
fill="#000000" stroke="none">
<path d="M725 1943 c-73 -37 -133 -89 -152 -131 -9 -21 -22 -75 -29 -122 -7
-47 -20 -121 -29 -165 -34 -171 -65 -341 -65 -360 0 -20 -6 -21 -151 -22 -142
-1 -152 -3 -175 -24 -31 -29 -32 -78 -2 -106 32 -29 139 -72 223 -90 l70 -15
-3 -238 -4 -239 73 -70 c80 -79 110 -88 147 -48 21 22 22 33 22 183 0 87 3
216 7 285 l6 126 137 6 c143 5 178 15 228 60 30 28 31 101 0 134 -20 21 -27
22 -107 17 -116 -7 -237 6 -234 26 1 8 7 67 13 130 19 215 29 285 49 330 11
25 22 56 25 70 8 40 57 96 96 111 20 7 76 12 130 12 81 0 103 -4 145 -24 43
-21 55 -35 87 -94 21 -39 38 -79 38 -91 0 -28 41 -64 71 -64 14 0 35 10 47 23
34 36 28 83 -23 187 -52 108 -57 115 -104 141 -20 11 -49 28 -66 37 -47 28
-191 52 -312 52 -96 -1 -114 -4 -158 -27z"/>
</g>
</svg>
