<?xml version="1.0" standalone="no"?>
<!DOCTYPE svg PUBLIC "-//W3C//DTD SVG 20010904//EN"
 "http://www.w3.org/TR/2001/REC-SVG-20010904/DTD/svg10.dtd">
<svg version="1.0" xmlns="http://www.w3.org/2000/svg"
 width="152.000000pt" height="217.000000pt" viewBox="0 0 152.000000 217.000000"
 preserveAspectRatio="xMidYMid meet">
<metadata>
Created by potrace 1.10, written by Peter Selinger 2001-2011
</metadata>
<g transform="translate(0.000000,217.000000) scale(0.100000,-0.100000)"
fill="#000000" stroke="none">
<path d="M945 2031 c-45 -10 -116 -36 -162 -59 -46 -23 -92 -42 -103 -42 -31
0 -171 -146 -196 -205 -34 -80 -44 -118 -44 -172 0 -60 22 -93 83 -125 91 -47
268 -64 318 -30 125 83 144 102 187 187 28 53 31 57 31 30 0 -16 -10 -81 -22
-143 l-23 -112 -179 -143 c-122 -97 -196 -164 -230 -207 -27 -36 -77 -92 -111
-125 -85 -85 -140 -155 -163 -207 -11 -25 -25 -49 -31 -53 -17 -11 -42 -72
-51 -125 -4 -25 -13 -75 -20 -112 -11 -55 -11 -82 0 -145 16 -94 39 -144 94
-200 l41 -43 91 0 c122 0 164 21 270 133 44 46 90 98 102 114 26 36 93 171 93
189 0 8 10 35 22 61 22 49 99 213 137 292 11 25 21 51 21 58 0 8 11 36 25 63
14 27 25 56 25 65 0 8 16 47 35 85 19 38 35 85 35 103 0 31 5 36 51 57 28 13
64 39 80 57 26 31 29 40 29 107 0 63 -3 75 -23 94 -23 22 -81 30 -91 13 -3 -5
-14 -11 -24 -14 -21 -5 -21 -9 7 84 6 19 11 81 11 138 0 89 3 108 25 151 34
67 34 128 0 160 -44 41 -200 51 -340 21z m-49 -288 c-99 -120 -118 -136 -176
-143 -47 -6 -50 -5 -50 15 0 24 79 97 118 109 12 4 34 18 50 30 27 23 100 65
115 66 4 0 -21 -35 -57 -77z m-21 -882 c-30 -60 -59 -112 -65 -116 -5 -3 -34
-57 -64 -119 -30 -63 -59 -117 -65 -121 -6 -3 -28 -38 -47 -78 -45 -89 -77
-129 -135 -172 l-46 -33 7 31 c22 86 92 246 130 297 15 19 35 51 45 70 10 19
48 69 84 110 37 41 98 112 135 158 38 45 71 82 73 82 2 0 -21 -49 -52 -109z"/>
</g>
</svg>
