<?xml version="1.0" standalone="no"?>
<!DOCTYPE svg PUBLIC "-//W3C//DTD SVG 20010904//EN"
 "http://www.w3.org/TR/2001/REC-SVG-20010904/DTD/svg10.dtd">
<svg version="1.0" xmlns="http://www.w3.org/2000/svg"
 width="156.000000pt" height="200.000000pt" viewBox="0 0 156.000000 200.000000"
 preserveAspectRatio="xMidYMid meet">
<metadata>
Created by potrace 1.10, written by Peter Selinger 2001-2011
</metadata>
<g transform="translate(0.000000,200.000000) scale(0.100000,-0.100000)"
fill="#000000" stroke="none">
<path d="M513 1908 c-11 -13 -23 -39 -26 -58 -3 -19 -10 -51 -16 -70 -52 -177
-69 -253 -90 -415 -7 -49 -32 -193 -56 -320 -126 -659 -125 -653 -97 -678 28
-26 160 -87 186 -87 26 0 66 38 66 63 0 10 14 44 30 77 17 33 30 66 30 75 0
19 65 150 92 185 38 49 68 96 97 152 17 31 35 59 41 63 6 4 33 52 61 108 28
56 60 112 72 125 52 56 155 3 203 -105 26 -57 26 -62 29 -316 2 -254 3 -258
25 -282 33 -35 97 -35 131 1 21 22 25 39 31 122 17 219 20 403 8 450 -7 26
-14 55 -17 64 -2 9 -24 43 -48 74 -25 32 -45 63 -45 69 0 17 -39 50 -85 73
-32 16 -63 20 -150 22 -156 3 -238 -16 -297 -68 -22 -18 -21 -22 -4 69 8 41
20 110 26 154 6 44 18 113 26 154 8 40 14 110 14 156 0 94 -5 101 -91 141 -66
31 -119 31 -146 2z"/>
</g>
</svg>
