<?xml version="1.0" standalone="no"?>
<!DOCTYPE svg PUBLIC "-//W3C//DTD SVG 20010904//EN"
 "http://www.w3.org/TR/2001/REC-SVG-20010904/DTD/svg10.dtd">
<svg version="1.0" xmlns="http://www.w3.org/2000/svg"
 width="137.000000pt" height="201.000000pt" viewBox="0 0 137.000000 201.000000"
 preserveAspectRatio="xMidYMid meet">
<metadata>
Created by potrace 1.10, written by Peter Selinger 2001-2011
</metadata>
<g transform="translate(0.000000,201.000000) scale(0.100000,-0.100000)"
fill="#000000" stroke="none">
<path d="M566 1759 c-39 -46 -35 -84 16 -132 58 -55 130 -87 198 -87 52 0 59
3 93 38 23 23 37 47 37 63 0 30 -38 69 -67 69 -24 0 -149 55 -158 70 -3 5 -26
10 -50 10 -36 0 -48 -5 -69 -31z"/>
<path d="M643 1263 c-91 -88 -103 -108 -115 -178 -14 -76 -29 -268 -31 -380
-1 -93 1 -104 28 -155 16 -30 28 -58 27 -62 -1 -5 1 -7 6 -6 4 1 27 -8 52 -21
41 -22 48 -23 100 -12 30 7 63 13 72 14 9 1 14 5 11 10 -3 5 5 7 18 5 14 -2
33 7 49 22 15 14 46 36 70 50 40 23 76 49 143 100 18 14 27 31 27 49 0 33 -37
71 -69 71 -24 0 -96 -34 -106 -50 -4 -6 -38 -26 -75 -45 -68 -34 -113 -44
-124 -26 -7 11 41 229 61 281 10 24 16 44 43 140 7 25 23 70 36 101 47 110 24
143 -112 166 -28 4 -39 -3 -111 -74z"/>
</g>
</svg>
