<?xml version="1.0" standalone="no"?>
<!DOCTYPE svg PUBLIC "-//W3C//DTD SVG 20010904//EN"
 "http://www.w3.org/TR/2001/REC-SVG-20010904/DTD/svg10.dtd">
<svg version="1.0" xmlns="http://www.w3.org/2000/svg"
 width="153.000000pt" height="239.000000pt" viewBox="0 0 153.000000 239.000000"
 preserveAspectRatio="xMidYMid meet">
<metadata>
Created by potrace 1.10, written by Peter Selinger 2001-2011
</metadata>
<g transform="translate(0.000000,239.000000) scale(0.100000,-0.100000)"
fill="#000000" stroke="none">
<path d="M955 2047 c-39 -39 -46 -82 -24 -148 13 -37 46 -79 63 -79 6 0 24
-16 39 -35 15 -19 34 -35 41 -35 7 0 24 -9 38 -19 13 -11 45 -22 71 -26 42 -7
51 -4 73 16 37 35 33 98 -12 194 -30 62 -47 84 -91 118 -44 33 -65 41 -108 45
-52 4 -56 3 -90 -31z"/>
<path d="M1062 1627 c-23 -24 -29 -66 -13 -82 6 -6 13 -44 17 -85 6 -72 5 -79
-25 -137 -17 -34 -35 -64 -41 -68 -6 -4 -31 -46 -55 -95 -24 -49 -49 -91 -55
-95 -6 -4 -24 -32 -40 -63 -17 -31 -46 -77 -65 -102 -19 -25 -47 -67 -61 -95
-32 -60 -202 -215 -236 -215 -4 0 -15 15 -25 32 -12 24 -18 69 -22 170 l-6
138 -32 31 c-26 26 -42 33 -85 37 -47 4 -58 1 -85 -22 -56 -47 -60 -76 -34
-256 11 -81 21 -118 55 -201 22 -53 42 -81 105 -142 59 -57 87 -77 115 -83 61
-11 57 -15 276 229 128 142 168 194 205 267 21 41 54 95 74 120 36 44 49 62
101 140 54 81 65 96 95 135 57 71 96 161 102 234 4 58 2 70 -18 100 -13 19
-42 46 -65 60 -22 14 -56 36 -75 48 -44 29 -80 29 -107 0z"/>
</g>
</svg>
