<?xml version="1.0" standalone="no"?>
<!DOCTYPE svg PUBLIC "-//W3C//DTD SVG 20010904//EN"
 "http://www.w3.org/TR/2001/REC-SVG-20010904/DTD/svg10.dtd">
<svg version="1.0" xmlns="http://www.w3.org/2000/svg"
 width="143.000000pt" height="197.000000pt" viewBox="0 0 143.000000 197.000000"
 preserveAspectRatio="xMidYMid meet">
<metadata>
Created by potrace 1.10, written by Peter Selinger 2001-2011
</metadata>
<g transform="translate(0.000000,197.000000) scale(0.100000,-0.100000)"
fill="#000000" stroke="none">
<path d="M396 1690 c-19 -22 -38 -52 -42 -67 -3 -16 -9 -39 -14 -53 -12 -39
-29 -101 -39 -145 -19 -81 -28 -111 -38 -130 -6 -11 -16 -51 -22 -90 -19 -109
-17 -103 -52 -225 -30 -103 -77 -311 -89 -395 -4 -33 -14 -78 -20 -100 -30
-102 -24 -117 62 -161 69 -35 100 -32 153 17 69 64 207 235 238 295 26 52 56
70 72 44 3 -5 19 -10 34 -10 32 0 199 -79 220 -103 7 -10 22 -17 33 -17 11 0
33 -10 49 -23 16 -12 42 -32 58 -45 16 -12 40 -22 53 -22 31 0 68 39 68 72 0
45 -48 160 -82 196 -36 37 -97 72 -125 72 -10 0 -42 11 -71 25 -30 14 -61 25
-70 26 -26 1 -166 73 -164 84 0 6 14 13 29 17 15 4 48 12 73 18 24 6 92 18
150 25 195 27 215 31 260 55 25 12 80 54 122 92 87 78 97 106 54 147 -28 26
-47 25 -201 -19 -22 -6 -76 -20 -120 -30 -120 -28 -151 -37 -165 -45 -7 -5
-39 -14 -72 -22 -121 -27 -174 -41 -190 -48 -22 -9 -22 -6 -3 119 22 150 37
218 53 250 8 16 17 65 20 108 4 72 3 81 -18 103 -21 22 -32 25 -96 25 -71 0
-72 0 -108 -40z"/>
</g>
</svg>
