<?xml version="1.0" standalone="no"?>
<!DOCTYPE svg PUBLIC "-//W3C//DTD SVG 20010904//EN"
 "http://www.w3.org/TR/2001/REC-SVG-20010904/DTD/svg10.dtd">
<svg version="1.0" xmlns="http://www.w3.org/2000/svg"
 width="137.000000pt" height="229.000000pt" viewBox="0 0 137.000000 229.000000"
 preserveAspectRatio="xMidYMid meet">
<metadata>
Created by potrace 1.10, written by Peter Selinger 2001-2011
</metadata>
<g transform="translate(0.000000,229.000000) scale(0.100000,-0.100000)"
fill="#000000" stroke="none">
<path d="M805 2048 c-33 -16 -75 -44 -94 -62 -32 -30 -101 -155 -101 -183 0
-7 -14 -42 -32 -76 -17 -34 -39 -98 -49 -142 -10 -44 -22 -96 -28 -115 -60
-207 -64 -233 -68 -379 l-4 -144 -46 -51 c-25 -28 -55 -65 -65 -83 -11 -17
-35 -43 -54 -58 -19 -14 -41 -40 -50 -58 -9 -18 -34 -52 -54 -77 -83 -100 -89
-143 -27 -193 85 -69 130 -76 171 -25 15 18 48 54 74 80 l47 48 7 -48 c11 -78
20 -105 46 -140 49 -64 160 -122 234 -122 37 0 47 6 105 63 49 50 63 70 63 94
0 35 -29 65 -82 84 -21 7 -51 27 -68 44 -26 27 -31 41 -41 125 -24 214 -25
196 12 239 19 21 45 56 59 76 14 20 43 59 65 86 115 140 164 220 205 339 6 19
21 58 32 85 11 28 24 65 29 83 5 17 14 49 20 70 17 58 28 158 28 258 1 89 1
90 -31 121 -46 44 -154 93 -203 93 -24 -1 -64 -13 -100 -32z m89 -348 c-4 -8
-12 -40 -20 -70 -25 -107 -31 -126 -57 -177 -15 -29 -27 -59 -27 -68 0 -31
-66 -135 -85 -135 -4 0 -4 11 -1 24 3 14 11 60 16 103 25 192 42 249 94 315
11 15 32 42 46 61 l25 35 8 -36 c4 -20 5 -43 1 -52z m-187 -477 c-4 -3 -7 0
-7 7 0 7 3 10 7 7 3 -4 3 -10 0 -14z"/>
</g>
</svg>
