<?xml version="1.0" standalone="no"?>
<!DOCTYPE svg PUBLIC "-//W3C//DTD SVG 20010904//EN"
 "http://www.w3.org/TR/2001/REC-SVG-20010904/DTD/svg10.dtd">
<svg version="1.0" xmlns="http://www.w3.org/2000/svg"
 width="197.000000pt" height="197.000000pt" viewBox="0 0 197.000000 197.000000"
 preserveAspectRatio="xMidYMid meet">
<metadata>
Created by potrace 1.10, written by Peter Selinger 2001-2011
</metadata>
<g transform="translate(0.000000,197.000000) scale(0.100000,-0.100000)"
fill="#000000" stroke="none">
<path d="M248 1709 c-55 -70 -66 -109 -72 -256 -3 -73 -12 -172 -20 -220 -9
-49 -20 -128 -26 -178 -6 -49 -18 -126 -26 -170 -9 -44 -18 -116 -21 -160 -4
-72 -2 -84 18 -108 23 -30 117 -77 154 -77 19 0 65 37 65 53 0 8 35 62 115
177 13 19 36 58 51 85 14 28 34 59 44 70 10 11 24 32 31 47 8 14 44 62 81 105
78 91 109 133 139 188 27 50 69 101 69 83 0 -7 -5 -33 -11 -58 -6 -25 -12
-135 -14 -245 -1 -110 -8 -247 -15 -305 l-11 -105 28 -26 c23 -20 48 -28 117
-38 86 -13 88 -13 112 10 13 12 24 33 24 46 0 27 62 154 94 195 11 14 35 49
51 78 17 28 41 67 55 85 14 19 36 50 50 70 84 123 174 205 197 181 13 -12 8
-433 -5 -536 -7 -52 -15 -114 -18 -138 -5 -36 -2 -48 17 -68 42 -44 107 -20
122 46 3 14 10 43 16 65 6 22 16 83 21 135 6 52 15 147 22 210 14 128 15 328
3 378 -4 20 -31 58 -64 93 -49 51 -62 59 -93 59 -20 0 -41 -7 -49 -16 -7 -8
-31 -25 -53 -36 -55 -28 -193 -145 -270 -230 -53 -59 -65 -66 -71 -51 -4 10
-11 90 -16 178 -11 179 -9 175 -110 288 -45 51 -55 57 -90 57 -22 0 -52 -6
-67 -14 -35 -18 -277 -266 -322 -328 -18 -27 -35 -48 -37 -48 -3 0 -1 93 2
208 l7 207 -26 25 c-22 20 -40 25 -95 28 l-68 4 -35 -43z"/>
</g>
</svg>
