<?xml version="1.0" standalone="no"?>
<!DOCTYPE svg PUBLIC "-//W3C//DTD SVG 20010904//EN"
 "http://www.w3.org/TR/2001/REC-SVG-20010904/DTD/svg10.dtd">
<svg version="1.0" xmlns="http://www.w3.org/2000/svg"
 width="130.000000pt" height="194.000000pt" viewBox="0 0 130.000000 194.000000"
 preserveAspectRatio="xMidYMid meet">
<metadata>
Created by potrace 1.10, written by Peter Selinger 2001-2011
</metadata>
<g transform="translate(0.000000,194.000000) scale(0.100000,-0.100000)"
fill="#000000" stroke="none">
<path d="M333 1668 c-18 -19 -25 -43 -33 -122 -5 -53 -14 -105 -20 -115 -9
-18 -32 -177 -50 -351 -5 -47 -15 -114 -21 -149 -7 -37 -10 -109 -6 -174 5
-109 5 -112 36 -139 18 -16 43 -28 59 -28 16 0 43 -11 62 -25 71 -53 122 -21
139 85 12 83 19 108 66 240 7 19 18 55 25 80 16 62 61 158 86 189 12 15 35 53
51 85 l30 60 16 -50 c8 -27 19 -62 23 -79 8 -34 9 -35 17 -55 16 -41 24 -121
26 -261 3 -198 0 -195 179 -232 49 -10 54 -9 78 14 25 23 26 28 20 94 -3 39
-13 106 -21 150 -73 401 -89 483 -104 504 -9 13 -20 31 -26 40 -56 90 -117
136 -192 146 l-53 7 -69 -64 c-72 -66 -146 -152 -174 -203 l-17 -30 6 30 c3
17 10 41 14 55 14 41 40 179 40 214 0 48 -51 93 -115 101 -44 6 -53 4 -72 -17z"/>
</g>
</svg>
