<?xml version="1.0" standalone="no"?>
<!DOCTYPE svg PUBLIC "-//W3C//DTD SVG 20010904//EN"
 "http://www.w3.org/TR/2001/REC-SVG-20010904/DTD/svg10.dtd">
<svg version="1.0" xmlns="http://www.w3.org/2000/svg"
 width="149.000000pt" height="175.000000pt" viewBox="0 0 149.000000 175.000000"
 preserveAspectRatio="xMidYMid meet">
<metadata>
Created by potrace 1.10, written by Peter Selinger 2001-2011
</metadata>
<g transform="translate(0.000000,175.000000) scale(0.100000,-0.100000)"
fill="#000000" stroke="none">
<path d="M630 1345 c-8 -2 -50 -9 -92 -16 -42 -6 -88 -19 -101 -28 -13 -9 -42
-28 -64 -42 -60 -40 -129 -128 -166 -210 -36 -80 -48 -117 -59 -184 -12 -81
-3 -146 32 -214 42 -83 90 -123 213 -176 l108 -47 112 4 c78 3 122 10 144 21
18 9 41 17 51 17 11 0 25 7 32 16 8 8 27 21 45 28 17 7 69 49 115 93 82 78
111 122 161 248 23 58 43 169 43 235 0 79 -21 137 -60 171 -25 21 -96 49 -169
66 -56 13 -312 26 -345 18z m277 -168 c29 -29 51 -188 35 -257 -21 -94 -72
-211 -108 -253 -42 -48 -137 -88 -223 -94 -66 -4 -83 -2 -132 20 -67 30 -103
70 -95 107 5 27 29 123 44 180 22 80 81 200 121 243 28 31 88 66 136 78 17 5
68 6 115 3 70 -4 89 -9 107 -27z"/>
</g>
</svg>
