<?xml version="1.0" standalone="no"?>
<!DOCTYPE svg PUBLIC "-//W3C//DTD SVG 20010904//EN"
 "http://www.w3.org/TR/2001/REC-SVG-20010904/DTD/svg10.dtd">
<svg version="1.0" xmlns="http://www.w3.org/2000/svg"
 width="175.000000pt" height="261.000000pt" viewBox="0 0 175.000000 261.000000"
 preserveAspectRatio="xMidYMid meet">
<metadata>
Created by potrace 1.10, written by Peter Selinger 2001-2011
</metadata>
<g transform="translate(0.000000,261.000000) scale(0.100000,-0.100000)"
fill="#000000" stroke="none">
<path d="M955 2321 c-22 -4 -62 -17 -89 -29 -27 -12 -55 -22 -62 -22 -26 0
-178 -82 -224 -120 -43 -36 -66 -75 -100 -170 -20 -58 -29 -120 -30 -220 0
-52 -5 -115 -11 -140 -5 -25 -16 -74 -23 -110 -8 -36 -20 -88 -28 -116 -8 -28
-15 -77 -17 -110 -1 -32 -6 -65 -11 -74 -4 -8 -13 -49 -20 -90 -6 -41 -16 -95
-21 -120 -17 -76 -37 -172 -49 -235 -6 -33 -16 -86 -23 -118 -11 -56 -10 -58
16 -85 24 -24 36 -27 105 -30 l78 -4 32 36 c18 20 32 45 32 56 0 10 4 29 9 42
24 63 33 108 51 248 11 84 24 158 30 165 6 7 15 64 21 126 9 102 21 166 49
264 5 17 14 47 19 68 6 20 16 54 22 75 6 20 17 80 24 132 7 52 13 83 14 68 1
-27 31 -55 158 -148 64 -47 96 -54 243 -54 124 0 125 0 196 36 77 40 124 89
169 177 27 54 27 56 14 129 -7 45 -21 85 -33 101 -12 14 -34 45 -50 68 -50 75
-175 179 -234 196 -46 13 -203 18 -257 8z m204 -150 c49 -25 56 -35 70 -101
24 -106 23 -112 -11 -175 -26 -48 -43 -66 -83 -87 -62 -34 -128 -37 -165 -8
-14 11 -30 20 -36 20 -6 0 -28 14 -49 30 -44 35 -80 38 -111 9 l-22 -21 8 36
c4 19 17 48 29 63 59 76 98 131 110 155 21 41 66 79 103 88 59 14 118 11 157
-9z"/>
</g>
</svg>
