<?xml version="1.0" standalone="no"?>
<!DOCTYPE svg PUBLIC "-//W3C//DTD SVG 20010904//EN"
 "http://www.w3.org/TR/2001/REC-SVG-20010904/DTD/svg10.dtd">
<svg version="1.0" xmlns="http://www.w3.org/2000/svg"
 width="178.000000pt" height="257.000000pt" viewBox="0 0 178.000000 257.000000"
 preserveAspectRatio="xMidYMid meet">
<metadata>
Created by potrace 1.10, written by Peter Selinger 2001-2011
</metadata>
<g transform="translate(0.000000,257.000000) scale(0.100000,-0.100000)"
fill="#000000" stroke="none">
<path d="M585 2318 c-16 -6 -46 -16 -65 -24 -19 -7 -47 -15 -62 -18 -14 -3
-39 -17 -55 -30 -15 -12 -39 -29 -53 -36 -53 -28 -113 -86 -138 -134 -26 -48
-27 -59 -27 -191 0 -158 4 -170 82 -263 32 -37 67 -64 116 -89 69 -34 74 -35
159 -31 57 4 96 11 112 22 l25 16 -14 -43 c-37 -113 -71 -398 -61 -517 9 -118
26 -215 46 -257 11 -23 20 -50 20 -59 0 -27 66 -158 93 -182 30 -28 186 -62
285 -62 l63 0 137 138 c76 75 163 164 193 197 30 33 81 82 112 108 65 55 74
88 34 125 -49 46 -72 35 -249 -121 -181 -158 -249 -214 -292 -241 -29 -19 -30
-19 -48 4 -10 12 -23 41 -29 63 -6 23 -17 58 -24 77 -29 83 -37 107 -46 140
-14 55 -10 240 6 328 8 44 19 134 24 200 5 66 14 129 19 139 5 10 12 36 16 58
4 22 11 51 15 65 5 14 14 45 21 70 28 101 33 117 50 160 26 66 50 149 50 174
0 28 -39 66 -68 66 -35 0 -183 -78 -224 -118 -21 -20 -38 -44 -38 -54 0 -9 -6
-32 -14 -50 -18 -43 -36 -101 -36 -116 0 -6 -14 -31 -30 -54 -17 -24 -38 -54
-48 -68 -47 -69 -115 -86 -194 -49 l-50 23 7 81 c8 90 14 105 60 155 18 19 41
51 51 72 11 20 52 66 92 103 79 73 122 92 163 69 60 -33 149 6 149 65 0 29
-36 71 -61 71 -8 0 -20 5 -27 12 -15 15 -208 20 -247 6z"/>
</g>
</svg>
