<?xml version="1.0" standalone="no"?>
<!DOCTYPE svg PUBLIC "-//W3C//DTD SVG 20010904//EN"
 "http://www.w3.org/TR/2001/REC-SVG-20010904/DTD/svg10.dtd">
<svg version="1.0" xmlns="http://www.w3.org/2000/svg"
 width="134.000000pt" height="194.000000pt" viewBox="0 0 134.000000 194.000000"
 preserveAspectRatio="xMidYMid meet">
<metadata>
Created by potrace 1.10, written by Peter Selinger 2001-2011
</metadata>
<g transform="translate(0.000000,194.000000) scale(0.100000,-0.100000)"
fill="#000000" stroke="none">
<path d="M748 1643 c-37 -6 -148 -133 -148 -170 0 -11 -6 -27 -14 -38 -11 -16
-22 -17 -93 -11 -77 6 -80 6 -106 -22 -23 -24 -27 -38 -31 -105 -5 -73 -9
-106 -42 -283 -11 -62 -12 -97 -4 -150 5 -38 10 -87 10 -109 0 -60 67 -123
175 -164 44 -17 89 -31 101 -31 25 0 64 39 64 66 0 10 10 39 21 64 23 49 31
74 59 195 19 82 42 173 58 235 5 19 21 58 35 87 15 29 27 59 27 68 0 9 14 44
31 78 29 56 33 60 43 42 6 -11 37 -46 69 -77 52 -51 63 -58 98 -58 44 0 72 11
107 43 35 32 28 68 -21 118 -115 117 -148 143 -259 203 -46 26 -100 31 -180
19z"/>
</g>
</svg>
