<?xml version="1.0" standalone="no"?>
<!DOCTYPE svg PUBLIC "-//W3C//DTD SVG 20010904//EN"
 "http://www.w3.org/TR/2001/REC-SVG-20010904/DTD/svg10.dtd">
<svg version="1.0" xmlns="http://www.w3.org/2000/svg"
 width="169.000000pt" height="188.000000pt" viewBox="0 0 169.000000 188.000000"
 preserveAspectRatio="xMidYMid meet">
<metadata>
Created by potrace 1.10, written by Peter Selinger 2001-2011
</metadata>
<g transform="translate(0.000000,188.000000) scale(0.100000,-0.100000)"
fill="#000000" stroke="none">
<path d="M715 1685 c-16 -7 -50 -18 -75 -25 -68 -18 -168 -67 -218 -108 -50
-41 -116 -162 -127 -232 -9 -65 -11 -189 -2 -183 4 2 7 0 7 -6 0 -19 113 -140
226 -241 106 -94 114 -104 99 -119 -8 -10 -15 -21 -15 -25 0 -5 -19 -31 -42
-58 -41 -49 -79 -79 -163 -128 -67 -39 -85 -59 -85 -95 0 -64 76 -99 215 -99
72 1 87 4 150 36 105 54 275 240 275 302 0 24 -85 106 -145 140 -89 50 -202
151 -231 205 -13 25 -33 57 -44 71 -11 14 -22 48 -26 80 -6 52 -4 58 28 98 66
82 144 129 274 161 18 5 68 28 112 51 74 40 80 45 78 74 -1 41 -35 68 -118 95
-76 24 -129 26 -173 6z"/>
</g>
</svg>
