<?xml version="1.0" standalone="no"?>
<!DOCTYPE svg PUBLIC "-//W3C//DTD SVG 20010904//EN"
 "http://www.w3.org/TR/2001/REC-SVG-20010904/DTD/svg10.dtd">
<svg version="1.0" xmlns="http://www.w3.org/2000/svg"
 width="162.000000pt" height="207.000000pt" viewBox="0 0 162.000000 207.000000"
 preserveAspectRatio="xMidYMid meet">
<metadata>
Created by potrace 1.10, written by Peter Selinger 2001-2011
</metadata>
<g transform="translate(0.000000,207.000000) scale(0.100000,-0.100000)"
fill="#000000" stroke="none">
<path d="M815 1803 c-49 -36 -115 -114 -143 -168 -11 -22 -30 -49 -42 -60 -13
-11 -33 -37 -46 -57 -15 -24 -32 -38 -45 -38 -46 0 -109 -51 -109 -89 0 -13
10 -35 22 -48 21 -22 21 -23 3 -63 -10 -22 -24 -45 -32 -52 -22 -18 -45 -68
-59 -128 -7 -30 -18 -75 -24 -100 -14 -55 -7 -250 10 -300 32 -88 45 -111 95
-160 37 -36 65 -55 91 -60 22 -5 59 -14 84 -20 61 -16 169 -6 219 19 22 12 49
21 60 21 11 0 32 11 48 24 15 13 42 30 58 39 17 8 53 36 80 62 50 47 103 81
118 77 5 -1 6 2 2 7 -3 6 14 20 37 32 60 30 88 58 88 89 0 32 -37 70 -68 70
-25 0 -137 -53 -147 -70 -4 -6 -30 -22 -58 -36 -29 -15 -61 -34 -72 -44 -11
-10 -37 -23 -57 -30 -21 -6 -38 -16 -38 -21 0 -5 -9 -9 -20 -9 -10 0 -34 -6
-52 -14 -88 -37 -136 -44 -156 -24 -35 35 11 278 79 423 24 50 57 95 113 155
43 46 45 47 112 49 38 1 87 6 109 11 22 5 54 10 71 10 37 0 74 36 74 71 0 38
-47 76 -102 84 -27 4 -48 9 -48 11 0 3 25 54 55 114 30 60 55 120 55 133 0 55
-107 107 -235 114 -87 5 -91 4 -130 -24z"/>
</g>
</svg>
