<?xml version="1.0" standalone="no"?>
<!DOCTYPE svg PUBLIC "-//W3C//DTD SVG 20010904//EN"
 "http://www.w3.org/TR/2001/REC-SVG-20010904/DTD/svg10.dtd">
<svg version="1.0" xmlns="http://www.w3.org/2000/svg"
 width="124.000000pt" height="165.000000pt" viewBox="0 0 124.000000 165.000000"
 preserveAspectRatio="xMidYMid meet">
<metadata>
Created by potrace 1.10, written by Peter Selinger 2001-2011
</metadata>
<g transform="translate(0.000000,165.000000) scale(0.100000,-0.100000)"
fill="#000000" stroke="none">
<path d="M752 1428 c-12 -14 -22 -29 -22 -35 0 -5 -38 -90 -85 -187 -47 -97
-85 -186 -85 -196 0 -11 -9 -39 -19 -62 -11 -24 -24 -63 -31 -88 -20 -75 -53
-141 -68 -132 -18 12 -17 129 1 172 37 88 75 227 103 378 9 46 -25 82 -78 82
-22 0 -71 5 -109 12 -66 10 -71 10 -93 -11 -15 -14 -27 -40 -31 -69 -4 -26
-12 -56 -18 -67 -32 -61 -56 -230 -56 -413 -1 -153 3 -167 83 -252 49 -52 77
-76 62 -51 -4 6 21 -2 56 -18 81 -37 125 -52 167 -58 31 -5 39 0 106 70 l73
75 6 -36 c3 -21 6 -53 6 -73 0 -45 24 -68 110 -105 48 -20 87 -28 150 -32 81
-4 86 -3 109 21 23 25 23 27 11 114 -6 48 -16 99 -21 112 -36 88 -30 453 10
626 27 120 27 156 -2 183 -13 13 -36 22 -53 22 -16 0 -54 6 -84 14 -30 8 -82
17 -115 21 -55 6 -62 4 -83 -17z"/>
</g>
</svg>
