<?xml version="1.0" standalone="no"?>
<!DOCTYPE svg PUBLIC "-//W3C//DTD SVG 20010904//EN"
 "http://www.w3.org/TR/2001/REC-SVG-20010904/DTD/svg10.dtd">
<svg version="1.0" xmlns="http://www.w3.org/2000/svg"
 width="182.000000pt" height="241.000000pt" viewBox="0 0 182.000000 241.000000"
 preserveAspectRatio="xMidYMid meet">
<metadata>
Created by potrace 1.10, written by Peter Selinger 2001-2011
</metadata>
<g transform="translate(0.000000,241.000000) scale(0.100000,-0.100000)"
fill="#000000" stroke="none">
<path d="M273 1978 c-25 -26 -28 -60 -13 -123 6 -22 15 -92 20 -155 6 -63 16
-149 24 -190 8 -41 20 -109 26 -150 7 -41 16 -83 21 -92 9 -16 21 -66 58 -237
24 -109 42 -125 169 -162 84 -24 112 -29 173 -29 56 0 69 3 87 23 12 13 22 30
23 38 0 8 16 34 34 59 19 25 44 62 55 82 11 20 24 40 30 43 6 4 28 41 50 83
22 42 56 97 75 122 19 25 44 61 55 80 20 33 36 56 110 155 16 22 41 61 54 87
14 26 30 49 36 53 6 3 19 23 30 43 11 20 29 48 40 62 19 24 50 122 50 159 0
10 -12 28 -26 42 -24 23 -33 24 -178 28 l-153 3 -32 -39 c-17 -21 -41 -58 -54
-80 -12 -23 -44 -69 -72 -102 -27 -33 -90 -112 -139 -175 -49 -64 -92 -113
-95 -111 -2 3 -8 28 -13 55 -14 89 -26 144 -43 200 -27 89 -36 123 -42 153 -9
45 -52 73 -125 80 -213 21 -211 21 -235 -5z"/>
</g>
</svg>
