<?xml version="1.0" standalone="no"?>
<!DOCTYPE svg PUBLIC "-//W3C//DTD SVG 20010904//EN"
 "http://www.w3.org/TR/2001/REC-SVG-20010904/DTD/svg10.dtd">
<svg version="1.0" xmlns="http://www.w3.org/2000/svg"
 width="232.000000pt" height="210.000000pt" viewBox="0 0 232.000000 210.000000"
 preserveAspectRatio="xMidYMid meet">
<metadata>
Created by potrace 1.10, written by Peter Selinger 2001-2011
</metadata>
<g transform="translate(0.000000,210.000000) scale(0.100000,-0.100000)"
fill="#000000" stroke="none">
<path d="M912 1747 c-12 -13 -22 -28 -22 -34 0 -5 -10 -18 -21 -29 -23 -20
-179 -335 -179 -361 0 -8 -11 -28 -25 -45 -14 -16 -27 -42 -31 -56 -3 -15 -16
-51 -30 -80 -13 -29 -24 -61 -24 -71 0 -10 -9 -26 -20 -36 -11 -10 -22 -26
-25 -36 -8 -25 -16 -23 -38 7 -13 18 -21 55 -27 132 -5 59 -14 148 -19 197 -6
50 -8 110 -5 136 5 39 2 49 -21 77 -25 30 -31 32 -89 32 -52 0 -66 -4 -84 -23
-19 -20 -22 -35 -22 -103 0 -163 21 -459 34 -479 7 -11 16 -33 19 -50 25 -128
29 -137 91 -200 102 -104 192 -134 236 -77 61 78 140 218 140 247 0 9 12 39
26 67 14 28 33 73 40 100 8 26 18 48 23 48 4 0 8 6 8 13 0 13 81 125 106 145
17 14 22 -21 33 -223 7 -119 10 -136 40 -198 18 -37 38 -75 45 -83 22 -27 147
-84 182 -84 38 0 71 29 80 71 4 14 18 38 32 55 14 16 25 32 25 35 0 3 14 23
30 44 17 21 30 34 30 30 0 -12 86 98 109 140 28 53 36 66 103 161 31 45 63 95
71 111 8 15 49 62 90 103 81 82 107 123 107 169 0 39 -45 76 -104 85 -25 4
-48 11 -51 17 -4 5 -19 9 -34 9 -28 0 -52 -21 -84 -72 -9 -14 -55 -67 -102
-118 -72 -77 -96 -113 -150 -218 -36 -70 -75 -140 -88 -156 l-24 -28 -7 33
c-26 128 -36 214 -42 356 -10 233 -21 247 -199 257 -107 7 -111 6 -133 -17z"/>
</g>
</svg>
