<?xml version="1.0" standalone="no"?>
<!DOCTYPE svg PUBLIC "-//W3C//DTD SVG 20010904//EN"
 "http://www.w3.org/TR/2001/REC-SVG-20010904/DTD/svg10.dtd">
<svg version="1.0" xmlns="http://www.w3.org/2000/svg"
 width="134.000000pt" height="203.000000pt" viewBox="0 0 134.000000 203.000000"
 preserveAspectRatio="xMidYMid meet">
<metadata>
Created by potrace 1.10, written by Peter Selinger 2001-2011
</metadata>
<g transform="translate(0.000000,203.000000) scale(0.100000,-0.100000)"
fill="#000000" stroke="none">
<path d="M382 1717 c-33 -35 -27 -77 23 -180 25 -51 45 -98 45 -104 0 -20 88
-201 114 -236 14 -19 26 -38 26 -43 0 -11 -57 -91 -130 -181 -31 -37 -64 -81
-75 -97 -11 -16 -27 -39 -35 -51 -8 -12 -27 -39 -41 -61 -15 -21 -36 -48 -49
-59 -28 -26 -70 -107 -70 -138 0 -24 37 -67 58 -67 16 0 83 -43 101 -64 19
-23 64 -20 89 7 12 13 22 28 22 35 0 17 40 82 81 132 20 25 50 73 67 107 18
34 36 64 42 68 6 3 20 25 32 48 21 41 21 41 28 17 15 -51 81 -167 113 -198 33
-32 35 -33 101 -26 51 5 75 13 97 31 36 30 36 54 4 122 -14 29 -29 67 -32 84
-3 18 -30 81 -60 140 l-54 108 71 70 c38 38 70 74 70 79 0 5 23 35 51 67 122
138 120 170 -15 242 -33 17 -69 31 -81 31 -28 0 -109 -88 -198 -215 l-19 -26
-24 32 c-13 18 -24 38 -24 43 0 6 -18 48 -40 94 -22 46 -40 91 -40 102 0 10
-12 32 -26 49 -20 24 -34 31 -62 31 -21 1 -48 7 -62 15 -37 21 -74 18 -98 -8z"/>
</g>
</svg>
