<?xml version="1.0" standalone="no"?>
<!DOCTYPE svg PUBLIC "-//W3C//DTD SVG 20010904//EN"
 "http://www.w3.org/TR/2001/REC-SVG-20010904/DTD/svg10.dtd">
<svg version="1.0" xmlns="http://www.w3.org/2000/svg"
 width="174.000000pt" height="300.000000pt" viewBox="0 0 174.000000 300.000000"
 preserveAspectRatio="xMidYMid meet">
<metadata>
Created by potrace 1.10, written by Peter Selinger 2001-2011
</metadata>
<g transform="translate(0.000000,300.000000) scale(0.100000,-0.100000)"
fill="#000000" stroke="none">
<path d="M647 2542 c-10 -10 -17 -25 -17 -33 0 -8 -8 -37 -19 -65 -10 -29 -22
-83 -26 -120 -3 -38 -16 -109 -28 -159 -15 -67 -21 -125 -21 -227 l-1 -137 30
-31 c80 -84 132 -81 268 14 32 22 72 50 87 61 16 11 50 44 76 73 25 29 48 51
50 49 3 -2 -3 -33 -12 -68 -9 -35 -25 -102 -35 -148 -21 -89 -17 -83 -159
-246 -30 -34 -84 -102 -120 -149 -36 -48 -80 -98 -98 -112 -19 -15 -44 -50
-57 -81 -14 -30 -36 -68 -49 -84 -14 -16 -27 -39 -31 -51 -3 -13 -28 -68 -55
-123 -55 -114 -76 -176 -85 -256 -7 -53 -5 -57 20 -78 22 -17 41 -21 96 -21
37 0 71 5 74 10 3 6 13 10 21 10 9 0 40 20 71 45 30 25 59 45 65 45 14 0 126
115 170 174 61 83 121 211 135 289 3 15 9 30 14 33 5 3 9 14 9 25 0 11 20 61
44 112 24 51 47 104 50 119 3 15 19 40 35 55 15 15 56 64 91 108 35 44 69 83
76 87 38 24 184 174 184 190 0 38 -83 138 -114 138 -12 0 -56 -32 -101 -75
-44 -41 -84 -74 -89 -75 -4 0 -6 15 -3 33 17 99 29 156 42 193 7 22 19 78 25
123 11 79 16 97 61 199 25 56 24 75 -6 110 -21 26 -34 30 -96 36 -80 8 -97 0
-119 -57 -12 -31 -26 -62 -86 -197 -16 -36 -38 -78 -49 -93 -36 -51 -137 -157
-146 -152 -4 3 -10 1 -14 -5 -3 -5 -13 -10 -21 -10 -21 0 -14 124 14 275 27
141 28 197 4 218 -10 10 -28 17 -39 17 -11 0 -26 7 -33 15 -17 21 -63 19 -83
-3z"/>
</g>
</svg>
