<?xml version="1.0" standalone="no"?>
<!DOCTYPE svg PUBLIC "-//W3C//DTD SVG 20010904//EN"
 "http://www.w3.org/TR/2001/REC-SVG-20010904/DTD/svg10.dtd">
<svg version="1.0" xmlns="http://www.w3.org/2000/svg"
 width="171.000000pt" height="238.000000pt" viewBox="0 0 171.000000 238.000000"
 preserveAspectRatio="xMidYMid meet">
<metadata>
Created by potrace 1.10, written by Peter Selinger 2001-2011
</metadata>
<g transform="translate(0.000000,238.000000) scale(0.100000,-0.100000)"
fill="#000000" stroke="none">
<path d="M282 1827 c-49 -52 -15 -106 84 -137 33 -10 103 -39 158 -64 54 -25
106 -46 115 -46 22 0 69 -45 76 -73 6 -23 -26 -107 -48 -125 -9 -7 -31 -7 -77
3 -36 7 -99 16 -141 19 -73 6 -78 5 -108 -20 -40 -33 -41 -71 -3 -106 28 -27
163 -88 194 -88 40 0 18 -21 -181 -173 -27 -20 -78 -51 -113 -69 -35 -17 -89
-53 -120 -81 -49 -42 -58 -56 -64 -94 -6 -40 -4 -48 19 -71 22 -22 39 -26 129
-36 180 -18 400 -13 503 12 50 12 108 22 130 22 111 2 284 59 343 113 30 28
28 67 -6 100 -23 22 -37 27 -78 27 -27 0 -67 -5 -89 -11 -183 -48 -485 -93
-485 -71 0 6 32 39 72 74 39 35 108 98 152 140 81 77 81 77 121 68 22 -5 93
-14 159 -20 l119 -12 38 38 c71 69 39 134 -68 141 -32 3 -72 11 -90 19 -17 8
-46 14 -65 15 -18 1 -44 4 -57 8 -22 6 -22 7 -7 21 22 18 66 104 66 128 0 29
-26 86 -55 120 -15 17 -52 41 -92 57 -36 14 -78 35 -91 46 -14 10 -33 19 -43
19 -10 0 -66 22 -126 48 -116 53 -199 82 -230 82 -11 0 -29 -10 -41 -23z"/>
</g>
</svg>
